<svg width="512" height="512" viewBox="0 0 512 512" xmlns="http://www.w3.org/2000/svg">
  <rect x="16" y="16" width="480" height="480" rx="64" fill="#fff" stroke="#111" stroke-width="20"/>
  <rect x="96" y="84" width="320" height="320" rx="48" fill="#fff" stroke="#111" stroke-width="18"/>
  <rect x="96" y="168" width="320" height="44" fill="#fcd34d"/>
  <rect x="96" y="128" width="320" height="44" fill="#facc15"/>
  <circle cx="168" cy="120" r="12" fill="#111"/>
  <circle cx="344" cy="120" r="12" fill="#111"/>
  <path d="M156 228h200M156 284h96M156 340h152" stroke="#111" stroke-width="18" stroke-linecap="round"/>
  <path d="M232 228l48 56 80-88" fill="none" stroke="#111" stroke-width="22" stroke-linecap="round" stroke-linejoin="round"/>
  <g fill="#facc15" stroke="#111" stroke-width="8" stroke-linecap="round" stroke-linejoin="round">
    <path d="M372 138l12 20 22 6-18 14 2 22-18-12-20 10 6-22-16-18 22-2z"/>
    <path d="M412 184l6 10 12 4-10 8 2 12-10-6-10 6 2-12-8-8 12-2z"/>
  </g>
  <text x="256" y="430" font-family="Poppins, 'Segoe UI', sans-serif" font-size="64" text-anchor="middle" fill="#111" font-weight="600">
    Set The Date
  </text>
  <path d="M352 352h144v144H352z" fill="#5b21b6"/>
  <path d="M352 352l144 144V352H352z" fill="#7c3aed"/>
  <text transform="translate(408 440) rotate(45)" font-family="Poppins,'Segoe UI',sans-serif" font-size="72" fill="#fff" font-weight="600">
    Pro
  </text>
</svg>
